{"title":"Mr.Holmes.2015.WEBRiP.XViD.ReLeNTLesS","uid":12556390,"size":1504350307,"categoryP":"video","categoryS":"movies","magnet":"?xt=urn:btih:a6deaa205278f034db670a7e360dc09b76c9bd74&amp;dn=Mr.Holmes.2015.WEBRiP.XViD.ReLeNTLesS&amp;tr=udp%3A%2F%2Ftracker.leechers-paradise.org%3A6969&amp;tr=udp%3A%2F%2Fzer0day.ch%3A1337&amp;tr=udp%3A%2F%2Fopen.demonii.com%3A1337&amp;tr=udp%3A%2F%2Ftracker.coppersurfer.tk%3A6969&amp;tr=udp%3A%2F%2Fexodus.desync.com%3A6969","seeders":0,"leechers":0,"uploader":"TvTeam","files":4,"time":1444639093,"description":"------------------------------------------------------------------------\r\n\r  https://www.torrenting.com\r\n\r\nSign up is OPEN - for time being. Come and have fun.\r\n\r\n------------------------------------------------------------------------P0STER\r\n[img]http://i.imgur.com/dohk4TT.png[/img]\r\n\r\niMDB: http://www.imdb.com/title/tt3168230/\r\n\r\nGeneral\r\nComplete name               : Mr.Holmes.2015.WEBRiP.XViD.ReLeNTLesS.avi\r\nFormat                      : AVI\r\nFormat/Info                 : Audio Video Interleave\r\nFile size                   : 1.39 GiB\r\nDuration                    : 1h 44mn\r\nOverall bit rate            : 1 909 Kbps\r\n\r\nVideo\r\nID                          : 0\r\nFormat                      : MPEG-4 Visual\r\nFormat profile              : Advanced   \r\nFormat settings, BVOP       : 1\r\nFormat settings, QPel       : No\r\nFormat settings, GMC        : No warppoints\r\nFormat settings, Matrix     : Default (H.263)\r\nMuxing mode                 : Packed bitstream\r\nCodec ID                    : XVID\r\nCodec ID/Hint               : XviD\r\nDuration                    : 1h 44mn\r\nBit rate                    : 1 709 Kbps\r\nWidth                       : 720 pixels\r\nHeight                      : 304 pixels\r\nDisplay aspect ratio        : 2.35:1\r\nFrame rate                  : 23.976 fps\r\nColor space                 : YUV\r\nChroma subsampling          : 4:2:0\r\nBit depth                   : 8 bits\r\nScan type                   : Progressive\r\nCompression mode            : Lossy\r\nBits/(Pixel*Frame)          : 0.326\r\nStream size                 : 1.24 GiB (90%)\r\nWriting library             : XviD 1.2.1 (UTC 2008-12-04)\r\n\r\nAudio\r\nID                          : 1\r\nFormat                      : AC-3\r\nFormat/Info                 : Audio Coding 3\r\nMode extension              : CM (complete main)\r\nFormat settings, Endianness : Big\r\nCodec ID                    : 2000\r\nDuration                    : 1h 44mn\r\nBit rate mode               : Constant\r\nBit rate                    : 192 Kbps\r\nChannel(s)                  : 2 channels\r\nChannel positions           : Front: L R\r\nSampling rate               : 48.0 KHz\r\nCompression mode            : Lossy\r\nStream size                 : 143 MiB (10%)\r\nAlignment                   : Aligned on interleaves\r\nInterleave, duration        : 64 ms (1.53 video frames)\r\nInterleave, preload duratio : 192 ms\r\nTitle                       : Mr.Holmes.2015.audio.2.0.English\r\nSample Included             : Yes\r\nSource                      : PLAYNOW Thanks\r\n\r\nPL0T\r\nAn aged, retired Sherlock Holmes looks back on his life, and grapples with an unsolved case involving a beautiful woman.\r\n\r\nCAST\r\nDirector: Bill Condon\r\nWriters: Mitch Cullin (novel), Jeffrey Hatcher (screenplay)\r\nStars: Ian McKellen, Laura Linney, Hiroyuki Sanada \r\n\r\nN0TE\r\nResized, ,degrained, sharpened and muxed audio.\r\n\r\nSCREENS\r\n[img]http://i.imgur.com/NWBZkWF.png[/img]\r\n[img]http://i.imgur.com/juyIog5.png[/img]\r\n[img]http://i.imgur.com/oExamE9.png[/img]\r\n[img]http://i.imgur.com/jBb2K31.png[/img]\r\n[img]http://i.imgur.com/nIQoalj.png[/img]\r\n[img]http://i.imgur.com/GrbyU36.png[/img]\r\n\r\nTRAiLER\r\n\r\nGREETZ\r\n\r\n\r\nHIVE-CM8, Blackjesus, M0RPH, M00SE, MiLLENiUM,\r\n\r\nMANiX, TiTAN, Anonymous, TuX, \r\n\r\nACAB, KingStoner, FooKas, 4PlayHD, \r\n\r\nSoZE, GodFather, Cld.... \r\n\r\nKeep up the good work guyz","torrent":{"xt":"urn:btih:a6deaa205278f034db670a7e360dc09b76c9bd74","amp;dn":"Mr.Holmes.2015.WEBRiP.XViD.ReLeNTLesS","amp;tr":["udp%3A%2F%2Ftracker.leechers-paradise.org%3A6969","udp%3A%2F%2Fzer0day.ch%3A1337","udp%3A%2F%2Fopen.demonii.com%3A1337","udp%3A%2F%2Ftracker.coppersurfer.tk%3A6969","udp%3A%2F%2Fexodus.desync.com%3A6969"],"infoHash":"a6deaa205278f034db670a7e360dc09b76c9bd74","infoHashBuffer":{"type":"Buffer","data":[166,222,170,32,82,120,240,52,219,103,10,126,54,13,192,155,118,201,189,116]},"announce":[],"urlList":[]}}